/* XPM */
static const char * icon_xpm[] = {
"26 32 10 1",
" 	c None",
".	c #848484",
"+	c #FFFFFF",
"@	c #000000",
"#	c #FFFF00",
"$	c #C6C6C6",
"%	c #FDFDFD",
"&	c #808080",
"*	c #00FF00",
"=	c #FF0000",
"....................++++++",
".++++++++++++++++++.@+++++",
".+++++++#########++..@++++",
".+++++++#########++.$.@+++",
".+++++++#########++.+$.@++",
".+++++++#########++.++$.@+",
".+++++++#########++.@@@@@@",
".+++++++#########+++++++$@",
".+++++++++++@+++++++++++$@",
".+++++++++++@+++++++++++$@",
".+++++++++++@+++++++++++$@",
".+++++++++++@+++++++++++$@",
".+++++++++++@+++++++%+++$@",
".+++++++&&&&&&&&&+++%+++$@",
".+++++++&&&&&&&&&+++++++$@",
".+++++++&&&&&&&&&+++++++$@",
".+++++@@&&&&&&&&&@@@@+++$@",
".+++++@+&&&&&&&&&+++@+++$@",
".+++++@+&&&&&&&&&+++@+++$@",
".+++++@+++++@+++++++@+++$@",
".+++++@+++++@+++++++@+++$@",
".+++++@+++++@+++++++@+++$@",
".+++++@+++++@+++++++@+++$@",
".+++*******+@++========+$@",
".+++*******+@++========+$@",
".++*******++@@@========+$@",
".++*******+++++========+$@",
".+*******++++++========+$@",
".+*******++++++========+$@",
".+++++++++++++++++++++++$@",
".$$$$$$$$$$$$$$$$$$$$$$$$@",
"@@@@@@@@@@@@@@@@@@@@@@@@@@"};
