/* XPM */
static const char * controls_xpm[] = {
"203 21 2 1",
" 	c None",
".	c #000000",
"                                                                                                                                                                                                           ",
"                                          ..................                                                                                                                                               ",
"    ..                                    ..................                 .        ..        ..                       ..        ..           ..        ..                       ..        ..        .   ",
"    ....                                  ..................                 .       ...       ...                      ...       ...           ...       ...                      ...       ...       .   ",
"    .......                               ..................                 .      ....      ....                     ....      ....           ....      ....                     ....      ....      .   ",
"    ..........                            ..................                 .     .....     .....                    .....     .....           .....     .....                    .....     .....     .   ",
"    ............                          ..................                 .    ......    ......                   ......    ......           ......    ......                   ......    ......    .   ",
"    ...............                       ..................                 .   .......   .......                  .......   .......           .......   .......                  .......   .......   .   ",
"    ..................                    ..................                 .  ........  ........                 ........  ........           ........  ........                 ........  ........  .   ",
"    ....................                  ..................                 . ......... .........                ......... .........           ......... .........                ......... ......... .   ",
"    ......................                ..................                 .....................               ....................           ....................               .....................   ",
"    .....................                 ..................                 .....................               ....................           ....................               .....................   ",
"    ...................                   ..................                 . ......... .........                ......... .........           ......... .........                ......... ......... .   ",
"    ................                      ..................                 .  ........  ........                 ........  ........           ........  ........                 ........  ........  .   ",
"    .............                         ..................                 .   .......   .......                  .......   .......           .......   .......                  .......   .......   .   ",
"    ..........                            ..................                 .    ......    ......                   ......    ......           ......    ......                   ......    ......    .   ",
"    .......                               ..................                 .     .....     .....                    .....     .....           .....     .....                    .....     .....     .   ",
"    .....                                 ..................                 .      ....      ....                     ....      ....           ....      ....                     ....      ....      .   ",
"    ..                                    ..................                 .       ...       ...                      ...       ...           ...       ...                      ...       ...       .   ",
"                                          ..................                 .        ..        ..                       ..        ..           ..        ..                       ..        ..        .   ",
"                                                                                                                                                                                                           "};
