/* XPM */
static const char * ir_xpm[] = {
"33 16 44 1",
" 	c None",
".	c #FFFFFF",
"+	c #D6D6D6",
"@	c #848484",
"#	c #EFEFEF",
"$	c #C5C5C5",
"%	c #141414",
"&	c #111111",
"*	c #F2F2F2",
"=	c #F1F1F1",
"-	c #828282",
";	c #101010",
">	c #151515",
",	c #F0F0F0",
"'	c #FEFEFE",
")	c #EDEDED",
"!	c #7E7E7E",
"~	c #121212",
"{	c #131313",
"]	c #878787",
"^	c #F4F4F4",
"/	c #A1A1A1",
"(	c #1A1A1A",
"_	c #000000",
":	c #1C1C1C",
"<	c #D1D1D1",
"[	c #909090",
"}	c #222222",
"|	c #FCFCFC",
"1	c #A2A2A2",
"2	c #232323",
"3	c #0C0C0C",
"4	c #797979",
"5	c #AAAAAA",
"6	c #2A2A2A",
"7	c #040404",
"8	c #646464",
"9	c #E8E8E8",
"0	c #A4A4A4",
"a	c #030303",
"b	c #5C5C5C",
"c	c #DBDBDB",
"d	c #F8F8F8",
"e	c #DDDDDD",
".................................",
".................................",
".................................",
".......................+@#.......",
".......................$%&@*....*",
"........................=-;>-,..'",
"..........................)!~{]^.",
"./((((((((((((((((((((((((((;__:.",
".<[[[[[[[[[[[[[[[[[[[[[[[[[]}_;].",
".........................|1234)..",
".......................'56789....",
".......................0abc......",
".......................de........",
".................................",
".................................",
"................................."};
