/* XPM */
static const char * re_xpm[] = {
"33 16 79 1",
" 	c None",
".	c #FFFFFF",
"+	c #D6D6D6",
"@	c #848484",
"#	c #EFEFEF",
"$	c #C5C5C5",
"%	c #141414",
"&	c #111111",
"*	c #F2F2F2",
"=	c #F1F1F1",
"-	c #828282",
";	c #101010",
">	c #151515",
",	c #F0F0F0",
"'	c #EDEDED",
")	c #7E7E7E",
"!	c #121212",
"~	c #131313",
"{	c #878787",
"]	c #F4F4F4",
"^	c #A1A1A1",
"/	c #1A1A1A",
"(	c #000000",
"_	c #1C1C1C",
":	c #D1D1D1",
"<	c #909090",
"[	c #222222",
"}	c #FEFEFE",
"|	c #BFBFBF",
"1	c #D2D2D2",
"2	c #FCFCFC",
"3	c #A2A2A2",
"4	c #232323",
"5	c #0C0C0C",
"6	c #797979",
"7	c #B8B8B8",
"8	c #424242",
"9	c #858585",
"0	c #AAAAAA",
"a	c #2A2A2A",
"b	c #040404",
"c	c #646464",
"d	c #E8E8E8",
"e	c #C0C0C0",
"f	c #3D3D3D",
"g	c #010101",
"h	c #474747",
"i	c #C4C4C4",
"j	c #A4A4A4",
"k	c #030303",
"l	c #5C5C5C",
"m	c #DBDBDB",
"n	c #BCBCBC",
"o	c #404040",
"p	c #464646",
"q	c #C9C9C9",
"r	c #F8F8F8",
"s	c #DDDDDD",
"t	c #4A4A4A",
"u	c #414141",
"v	c #B1B1B1",
"w	c #717171",
"x	c #050505",
"y	c #676767",
"z	c #696969",
"A	c #C1C1C1",
"B	c #DEDEDE",
"C	c #5F5F5F",
"D	c #2D2D2D",
"E	c #AFAFAF",
"F	c #D7D7D7",
"G	c #575757",
"H	c #020202",
"I	c #353535",
"J	c #B7B7B7",
"K	c #D0D0D0",
"L	c #4F4F4F",
"M	c #CBCBCB",
"N	c #D9D9D9",
".......................+@#.......",
".......................$%&@*.....",
"........................=-;>-,...",
"..........................')!~{].",
".^//////////////////////////;((_*",
".:<<<<<<<<<<<<<<<<<<<<<<<<<{[(;{}",
"........|1...............23456'..",
"......78(9.............}0abcd....",
"....efghi..............jklm......",
"..nogpq................rs........",
"}t((!uuuuuuuuuuuuuuuuuuuuuuuuuuv.",
".wx(/yzzzzzzzzzzzzzzzzzzzzzzzzzA.",
"..BCkDE}.........................",
"....FGHIJ}.......................",
"......KLg).......................",
"........MN......................."};
